# xmcd CD database file generated by Grip 2.96
# 
# Track frame offsets:
#       150
#       23812
#       38870
#       56822
#       64435
#       83345
#       92905
#       106725
#       125677
#       145270
#       164820
#       177727
#       203437
#       223570
#       252065
# 
# Disc length: 3612 seconds
# 
# Revision: 0
# Processed by: cddbd v1.4PL0 Copyright (c) Steve Scherf et al.
# Submitted via: Grip 2.96
# 
DISCID=d80e1a0f
DTITLE=Classically Blue - You Get That
DYEAR=1900
DGENRE=
TTITLE0=Cross Cut Saw
TTITLE1=Love Her With A Feelin'
TTITLE2=Cheap Haircut
TTITLE3=Each Long Day (Part 1)
TTITLE4=Each Long Day (Part 2)
TTITLE5=Each Long Day (Part 3)
TTITLE6=Need Your Love
TTITLE7=Outskirts Of Town
TTITLE8=Shipbuilding
TTITLE9=My Turn To Lose
TTITLE10=Room 8
TTITLE11=You Get That
TTITLE12=Stupid Kid
TTITLE13=Just A Little Bit
TTITLE14=Each Long Day (Reprise)
EXTD=
EXTT0=
EXTT1=
EXTT2=
EXTT3=
EXTT4=
EXTT5=
EXTT6=
EXTT7=
EXTT8=
EXTT9=
EXTT10=
EXTT11=
EXTT12=
EXTT13=
EXTT14=
PLAYORDER=
